<svg version="1" xmlns="http://www.w3.org/2000/svg" width="480" height="480" viewBox="0 0 360.000000 360.000000"><path d="M184.8 76.2c-1 .8-5 12.9-10.2 30.8-9.1 31.6-31.8 110.3-41.6 144-6.4 21.9-6.8 24.1-4.6 25.9.8.7 7.6 2.9 15.3 5 14.6 4.1 16.5 4.1 18.3-.2.5-1.2 12.2-41.4 26-89.2 13.8-47.9 26.2-90.6 27.5-95.1 4-13.1 3.8-13.6-7.3-16.9-4.8-1.4-10.7-3.2-13.2-4-5.5-1.8-8.1-1.9-10.2-.3zM101.4 121.3c-.6.7-8.9 8.4-18.4 17.2-9.4 8.8-18.2 17.1-19.4 18.6-1.2 1.4-2.7 2.8-3.3 3-.6.2-5 4.1-9.7 8.7-11.4 10.9-11.6 12-3.9 19.2 3.2 3 12.6 11.8 20.8 19.6 8.3 7.7 19.6 18.4 25.3 23.7 6.8 6.4 11.1 9.7 12.6 9.7 1.6 0 5.3-3.2 12.4-11 11.2-12.1 12.1-14.4 7.6-18.3-1.4-1.2-3.8-3.3-5.3-4.7-1.5-1.4-4.3-3.8-6.2-5.5-3.5-3-21.8-19.2-23.2-20.5-.4-.4 4.7-5.6 11.5-11.5 6.8-6 13.7-12.1 15.3-13.6 1.7-1.5 4.7-4.2 6.8-6 5.9-5 5.2-7.1-6.8-19.5-10.1-10.6-13.2-12.3-16.1-9.1zM227.1 130.7c-7.6 8-10.1 11.4-10.1 13.4 0 2.2 3.3 5.5 19.1 19.4 15.3 13.5 18.8 17 17.7 17.9-.7.7-5.3 4.8-10.3 9.2-4.9 4.3-9.2 8.1-9.5 8.4-.3.3-3.9 3.4-8 7-8.8 7.6-9 7.8-9 10.8 0 3.2 19.6 24.2 22.6 24.2 1.5 0 12.2-9.4 33.2-29 28.6-26.8 31-29.3 30.8-32.2-.1-1.7-1.1-3.7-2.2-4.4-1-.8-5.3-4.7-9.4-8.7-4.1-3.9-13.6-12.9-21-19.8-7.4-7-16.9-15.8-21-19.7-10.3-9.8-10.4-9.8-22.9 3.5z"/></svg>